<svg xmlns="http://www.w3.org/2000/svg" width="22" height="22" viewBox="0 0 22 22" fill="none">
  <path fill-rule="evenodd" clip-rule="evenodd" d="M18.3333 5.50016V10.644C18.0385 10.5771 17.7316 10.5418 17.4166 10.5418H16.4999C15.49 10.5418 14.5392 11.0173 13.9333 11.8252L12.8333 13.2918C12.4005 13.8689 11.7212 14.2085 10.9999 14.2085C10.2786 14.2085 9.59934 13.8689 9.16658 13.2918L8.06659 11.8252C7.46068 11.0173 6.50976 10.5418 5.49992 10.5418H4.58325C4.2682 10.5418 3.96139 10.5771 3.66659 10.644V5.50016C3.66659 3.47512 5.30821 1.8335 7.33325 1.8335H14.6666C16.6916 1.8335 18.3333 3.47512 18.3333 5.50016ZM20.1666 14.6668V17.4168C20.1666 18.9357 18.9354 20.1668 17.4166 20.1668H4.58325C3.06447 20.1668 1.83325 18.9357 1.83325 17.4168V14.6668C1.83325 13.148 3.06447 11.9168 4.58325 11.9168H5.49992C6.07697 11.9168 6.62035 12.1885 6.96659 12.6502L8.06659 14.1168C8.75905 15.0401 9.84583 15.5835 10.9999 15.5835C12.154 15.5835 13.2408 15.0401 13.9333 14.1168L15.0333 12.6502C15.3795 12.1885 15.9229 11.9168 16.4999 11.9168H17.4166C18.9354 11.9168 20.1666 13.148 20.1666 14.6668Z" fill="#4573FD"/>
</svg>