<svg xmlns="http://www.w3.org/2000/svg" width="22" height="22" viewBox="0 0 22 22" fill="none">
  <path fill-rule="evenodd" clip-rule="evenodd" d="M14.832 20.1668H7.16793C5.05157 20.1668 3.33594 18.5297 3.33594 16.5101V12.0387C3.33594 11.3896 3.06568 10.767 2.58463 10.3079C1.47008 9.24429 1.61496 7.48204 2.88972 6.59734L8.74605 2.53291C10.0898 1.60036 11.9101 1.60036 13.2538 2.53291L19.1101 6.59733C20.3848 7.48204 20.5298 9.24429 19.4152 10.3079C18.9341 10.767 18.6639 11.3896 18.6639 12.0387V16.5101C18.6639 18.5297 16.9483 20.1668 14.832 20.1668ZM8.34753 9.57639L10.1801 8.6601C10.6961 8.40204 11.3037 8.40204 11.8198 8.6601L13.6446 9.57254C14.2701 9.88531 14.6715 10.5283 14.634 11.2266C14.4862 13.9742 13.8187 15.2529 12.0202 16.6719C11.4231 17.1427 10.5774 17.1416 9.97967 16.6718C8.18583 15.2617 7.49373 13.9988 7.35881 11.218C7.32513 10.5239 7.726 9.88714 8.34753 9.57639Z" fill="#4573FD"/>
</svg>