<svg xmlns="http://www.w3.org/2000/svg" width="1440" height="634" viewBox="0 0 1440 634" fill="none">
  <g opacity="0.04">
    <path d="M1214.91 104.438C1269.79 94.2121 1312.2 70.4816 1347.39 47.4352C1355.83 41.9112 1363.85 36.4246 1371.53 31.1731L1371.56 31.1577L1371.56 31.1548L1372.52 30.4967C1380.5 25.0392 1388.11 19.8482 1395.44 15.139C1404.74 9.15444 1413.57 3.96212 1422.09 0H1419.65C1411.61 3.87947 1403.33 8.78895 1394.67 14.3549C1387.33 19.0749 1379.71 24.2756 1371.73 29.7315L1370.77 30.3847L1370.77 30.3913L1370.76 30.3937C1363.07 35.6503 1355.05 41.1351 1346.62 46.6566C1311.48 69.6712 1269.24 93.2883 1214.63 103.464C1144.73 116.489 1052.54 118.792 972.225 116.939C891.907 115.085 823.54 109.078 801.31 105.506C629.101 77.8365 311.5 62.5171 203.834 57.324C196.533 56.9718 190.198 56.6662 184.938 56.4065C101.894 52.3055 34.1043 37.6422 0 27.9514V29.0103C34.373 38.7414 102.064 53.3158 184.863 57.4046C190.124 57.6644 196.458 57.97 203.757 58.322C311.439 63.5163 628.954 78.8322 801.071 106.487C823.4 110.075 891.846 116.084 972.19 117.938C1052.53 119.792 1144.85 117.493 1214.91 104.438Z" fill="#1FAB71"/>
    <path d="M0 82.7714V83.8305C34.3882 93.5809 102.121 108.187 184.973 112.284C190.236 112.544 196.574 112.85 203.876 113.203C311.616 118.408 629.301 133.754 801.51 161.463C823.851 165.058 892.334 171.079 972.721 172.937C1053.11 174.795 1145.48 172.491 1215.57 159.411C1278.51 147.664 1325.08 118.132 1363.15 92.2357C1366.26 90.1202 1369.31 88.0296 1372.31 85.9753C1387.69 75.4445 1401.68 65.8665 1414.89 58.7737C1423.57 54.1123 1431.88 50.5443 1440 48.4866V47.44C1431.6 49.524 1423.06 53.1873 1414.21 57.9394C1400.93 65.0675 1386.88 74.692 1371.5 85.2224L1371.49 85.2314L1371.35 85.328C1368.4 87.3456 1365.41 89.3963 1362.36 91.4689C1324.3 117.356 1277.93 146.747 1215.29 158.436C1145.36 171.487 1053.12 173.795 972.756 171.938C892.395 170.081 823.991 164.061 801.749 160.482C629.449 132.758 311.677 117.409 203.954 112.205C196.649 111.852 190.31 111.546 185.048 111.286C101.95 107.176 34.1191 92.4814 0 82.7714Z" fill="#1FAB71"/>
    <path d="M1440 102.44C1431.6 104.524 1423.06 108.187 1414.21 112.939C1400.93 120.068 1386.88 129.692 1371.5 140.222L1371.5 140.228C1368.5 142.278 1365.46 144.362 1362.36 146.469C1324.3 172.356 1277.93 201.747 1215.29 213.436C1145.36 226.487 1053.12 228.795 972.756 226.938C892.395 225.081 823.991 219.061 801.749 215.482C629.449 187.758 311.68 172.409 203.955 167.205L203.954 167.205C196.649 166.852 190.31 166.546 185.048 166.286C101.95 162.176 34.1191 147.481 0 137.771V138.831C34.3882 148.581 102.121 163.187 184.973 167.284C190.236 167.544 196.574 167.85 203.876 168.203C311.616 173.408 629.301 188.754 801.51 216.463C823.851 220.058 892.334 226.079 972.721 227.937C1053.11 229.795 1145.48 227.491 1215.57 214.411C1278.51 202.664 1325.08 173.132 1363.15 147.236C1366.26 145.12 1369.31 143.03 1372.31 140.975C1387.69 130.444 1401.68 120.866 1414.89 113.774C1423.57 109.112 1431.88 105.544 1440 103.487V102.44Z" fill="#1FAB71"/>
    <path d="M1440 157.44C1431.6 159.524 1423.06 163.187 1414.21 167.939C1400.93 175.068 1386.88 184.692 1371.5 195.222L1371.5 195.228C1368.5 197.278 1365.46 199.362 1362.36 201.469C1324.3 227.356 1277.93 256.747 1215.29 268.436C1145.36 281.487 1053.12 283.794 972.756 281.938C892.395 280.081 823.991 274.061 801.749 270.482C629.449 242.758 311.68 227.409 203.955 222.205L203.954 222.205C196.649 221.852 190.31 221.546 185.048 221.286C101.95 217.176 34.1191 202.481 0 192.771V193.831C34.3882 203.581 102.121 218.187 184.973 222.284C190.236 222.544 196.574 222.85 203.876 223.203C311.616 228.408 629.301 243.754 801.51 271.463C823.851 275.058 892.334 281.079 972.721 282.937C1053.11 284.795 1145.48 282.491 1215.57 269.411C1278.51 257.664 1325.08 228.132 1363.15 202.236C1366.26 200.12 1369.31 198.03 1372.31 195.975C1387.69 185.444 1401.68 175.866 1414.89 168.774C1423.57 164.112 1431.88 160.544 1440 158.487V157.44Z" fill="#1FAB71"/>
    <path d="M1440 213.425C1431.61 215.492 1423.06 219.127 1414.21 223.841C1400.94 230.913 1386.88 240.462 1371.51 250.909L1371.47 250.933C1368.49 252.961 1365.45 255.022 1362.36 257.107C1324.3 282.79 1277.93 311.949 1215.29 323.547C1145.36 336.495 1053.12 338.784 972.756 336.942C892.395 335.1 823.991 329.128 801.749 325.577C629.448 298.071 311.676 282.842 203.953 277.68L203.483 277.657C196.376 277.317 190.196 277.02 185.047 276.768C101.951 272.691 34.1199 258.112 0 248.478V249.536C34.3874 259.21 102.12 273.701 184.973 277.766C190.236 278.024 196.574 278.328 203.877 278.678C311.619 283.842 629.303 299.067 801.511 326.558C823.851 330.124 892.334 336.099 972.721 337.942C1053.11 339.785 1145.48 337.499 1215.57 324.522C1278.51 312.868 1325.08 283.568 1363.15 257.876C1366.26 255.777 1369.31 253.703 1372.31 251.665C1387.69 241.217 1401.68 231.714 1414.89 224.677C1423.57 220.053 1431.88 216.512 1440 214.471V213.425Z" fill="#1FAB71"/>
    <path d="M1440 268.425C1431.61 270.492 1423.06 274.127 1414.21 278.841C1400.94 285.913 1386.88 295.462 1371.51 305.909L1371.47 305.933L1371.29 306.055C1368.37 308.043 1365.39 310.064 1362.36 312.107C1324.3 337.79 1277.93 366.949 1215.29 378.547C1145.36 391.495 1053.12 393.784 972.756 391.942C892.395 390.1 823.991 384.128 801.749 380.577C629.448 353.071 311.676 337.842 203.953 332.68L203.483 332.657C196.376 332.317 190.196 332.02 185.047 331.768C101.951 327.691 34.1199 313.112 0 303.478V304.536C34.3874 314.21 102.12 328.701 184.973 332.766C190.169 333.021 196.415 333.32 203.601 333.665L203.878 333.678C311.618 338.841 629.302 354.067 801.511 381.558C823.851 385.124 892.334 391.099 972.721 392.942C1053.11 394.785 1145.48 392.499 1215.57 379.522C1278.51 367.868 1325.08 338.568 1363.15 312.876C1366.26 310.777 1369.31 308.703 1372.31 306.665C1387.69 296.217 1401.68 286.714 1414.89 279.677C1423.57 275.053 1431.88 271.512 1440 269.471V268.425Z" fill="#1FAB71"/>
    <path d="M1440 323.425C1431.61 325.492 1423.06 329.127 1414.21 333.841C1400.94 340.913 1386.88 350.462 1371.51 360.909L1371.47 360.933L1371.29 361.055C1368.37 363.043 1365.39 365.064 1362.36 367.107C1324.3 392.79 1277.93 421.949 1215.29 433.547C1145.36 446.495 1053.12 448.784 972.756 446.942C892.395 445.1 823.991 439.128 801.749 435.577C629.448 408.071 311.676 392.842 203.953 387.68L203.483 387.657C196.376 387.317 190.196 387.02 185.047 386.768C101.951 382.691 34.1199 368.112 0 358.478V359.536C34.3874 369.21 102.12 383.701 184.973 387.766C190.236 388.024 196.574 388.328 203.877 388.678C311.619 393.842 629.303 409.067 801.511 436.558C823.851 440.124 892.334 446.099 972.721 447.942C1053.11 449.785 1145.48 447.499 1215.57 434.522C1278.51 422.868 1325.08 393.568 1363.15 367.876C1366.26 365.777 1369.31 363.703 1372.31 361.665C1387.69 351.217 1401.68 341.714 1414.89 334.677C1423.57 330.053 1431.88 326.512 1440 324.471V323.425Z" fill="#1FAB71"/>
    <path d="M1440 378.425C1431.61 380.492 1423.06 384.127 1414.21 388.841C1400.94 395.913 1386.88 405.462 1371.51 415.909L1371.47 415.933L1371.29 416.055C1368.37 418.043 1365.39 420.064 1362.36 422.107C1324.3 447.79 1277.93 476.949 1215.29 488.547C1145.36 501.495 1053.12 503.784 972.756 501.942C892.395 500.1 823.991 494.128 801.749 490.577C629.448 463.071 311.676 447.842 203.953 442.68L203.483 442.657C196.376 442.317 190.196 442.02 185.047 441.768C101.951 437.691 34.1199 423.112 0 413.478V414.536C34.3874 424.21 102.12 438.701 184.973 442.766C190.169 443.021 196.415 443.32 203.601 443.665L203.878 443.678C311.618 448.841 629.302 464.067 801.511 491.558C823.851 495.124 892.334 501.099 972.721 502.942C1053.11 504.785 1145.48 502.499 1215.57 489.522C1278.51 477.868 1325.08 448.568 1363.15 422.876C1366.26 420.777 1369.31 418.703 1372.31 416.665C1387.69 406.217 1401.68 396.714 1414.89 389.677C1423.57 385.053 1431.88 381.512 1440 379.471V378.425Z" fill="#1FAB71"/>
    <path d="M1440 433.425C1431.61 435.492 1423.06 439.127 1414.21 443.841C1400.94 450.913 1386.88 460.462 1371.51 470.909L1371.47 470.933L1371.29 471.055C1368.37 473.043 1365.39 475.064 1362.36 477.107C1324.3 502.79 1277.93 531.949 1215.29 543.547C1145.36 556.495 1053.12 558.784 972.756 556.942C892.395 555.1 823.991 549.128 801.749 545.577C629.448 518.071 311.676 502.842 203.953 497.68L203.483 497.657C196.376 497.317 190.196 497.02 185.047 496.768C101.951 492.691 34.1199 478.112 0 468.478V469.536C34.3874 479.21 102.12 493.701 184.973 497.766C190.236 498.024 196.574 498.328 203.877 498.678L203.879 498.678C311.621 503.842 629.303 519.067 801.511 546.558C823.851 550.125 892.334 556.099 972.721 557.942C1053.11 559.785 1145.48 557.499 1215.57 544.522C1278.51 532.868 1325.08 503.568 1363.15 477.876C1366.26 475.777 1369.31 473.703 1372.31 471.665C1387.69 461.217 1401.68 451.714 1414.89 444.677C1423.57 440.053 1431.88 436.512 1440 434.471V433.425Z" fill="#1FAB71"/>
    <path d="M1440 488.425C1431.61 490.492 1423.06 494.127 1414.21 498.841C1400.94 505.913 1386.88 515.462 1371.51 525.909L1371.49 525.92L1371.39 525.992C1368.43 528.001 1365.42 530.043 1362.36 532.107C1324.3 557.79 1277.93 586.949 1215.29 598.547C1145.36 611.495 1053.12 613.784 972.756 611.942C892.395 610.1 823.991 604.128 801.749 600.577C629.45 573.071 311.684 557.843 203.958 552.68L203.955 552.68H203.953L203.832 552.674C196.579 552.326 190.281 552.025 185.047 551.768C101.951 547.691 34.1199 533.112 0 523.478V524.536C34.3874 534.21 102.12 548.701 184.973 552.766C190.116 553.018 196.286 553.314 203.379 553.654L203.877 553.678C311.616 558.841 629.301 574.067 801.511 601.558C823.851 605.125 892.334 611.099 972.721 612.942C1053.11 614.785 1145.48 612.499 1215.57 599.522C1278.51 587.868 1325.08 558.568 1363.15 532.876C1366.26 530.777 1369.31 528.703 1372.31 526.665L1372.31 526.664L1372.32 526.661C1387.69 516.215 1401.68 506.714 1414.89 499.677C1423.57 495.053 1431.88 491.512 1440 489.471V488.425Z" fill="#1FAB71"/>
    <path d="M1440 543.425C1431.61 545.492 1423.06 549.127 1414.21 553.841C1400.94 560.913 1386.88 570.462 1371.51 580.909L1371.49 580.92L1371.39 580.992C1368.43 583.001 1365.42 585.043 1362.36 587.107C1338.69 603.08 1311.81 620.398 1279.79 634H1282.43C1313.66 620.483 1339.98 603.511 1363.15 587.876C1366.26 585.777 1369.31 583.703 1372.31 581.665L1372.31 581.664L1372.32 581.661C1387.69 571.215 1401.68 561.714 1414.89 554.677C1423.57 550.053 1431.88 546.512 1440 544.471V543.425Z" fill="#1FAB71"/>
    <path d="M1440 598.44C1431.6 600.524 1423.06 604.187 1414.21 608.939C1401.87 615.563 1388.87 624.342 1374.75 634H1376.66C1390.34 624.646 1402.93 616.192 1414.89 609.774C1423.57 605.112 1431.88 601.544 1440 599.487V598.44Z" fill="#1FAB71"/>
    <path d="M604.73 634H616.14C457.051 619.809 279.23 611.287 203.958 607.68L203.955 607.68H203.953L203.832 607.674C196.579 607.326 190.281 607.025 185.047 606.768C101.951 602.691 34.1199 588.112 0 578.478V579.536C34.3874 589.21 102.12 603.701 184.973 607.766C190.116 608.018 196.286 608.314 203.379 608.654L203.877 608.678C277.388 612.201 448.638 620.408 604.73 634Z" fill="#1FAB71"/>
  </g>
</svg>