<svg xmlns="http://www.w3.org/2000/svg" width="22" height="22" viewBox="0 0 22 22" fill="none">
  <path fill-rule="evenodd" clip-rule="evenodd" d="M5.49992 1.8335C3.47487 1.8335 1.83325 3.47512 1.83325 5.50016V16.5002C1.83325 18.5252 3.47487 20.1668 5.49992 20.1668H16.4999C18.5249 20.1668 20.1666 18.5252 20.1666 16.5002V5.50016C20.1666 3.47512 18.5249 1.8335 16.4999 1.8335H5.49992ZM11.6875 5.50016C11.6875 5.12047 11.3797 4.81266 11 4.81266C10.6203 4.81266 10.3125 5.12047 10.3125 5.50016V6.69997C9.34854 6.85287 8.48989 7.32214 7.84628 7.99804L6.45776 7.19638C6.12893 7.00653 5.70847 7.1192 5.51862 7.44802C5.32878 7.77685 5.44144 8.19732 5.77026 8.38717L7.06468 9.1345C6.79612 9.69996 6.64586 10.3326 6.64586 11.0002C6.64586 11.6678 6.79611 12.3004 7.06466 12.8658L5.77026 13.6131C5.44144 13.803 5.32878 14.2234 5.51862 14.5522C5.70847 14.8811 6.12893 14.9937 6.45776 14.8039L7.84625 14.0022C8.48986 14.6782 9.34854 15.1474 10.3125 15.3003V16.5002C10.3125 16.8798 10.6203 17.1877 11 17.1877C11.3797 17.1877 11.6875 16.8798 11.6875 16.5002V15.3003C12.6516 15.1474 13.5102 14.6782 14.1538 14.0022L15.5422 14.8039C15.871 14.9937 16.2915 14.8811 16.4813 14.5522C16.6712 14.2233 16.5585 13.8029 16.2297 13.613L14.9354 12.8658C15.2039 12.3004 15.3542 11.6678 15.3542 11.0002C15.3542 10.3326 15.2039 9.69996 14.9354 9.13449L16.2297 8.38722C16.5585 8.19737 16.6712 7.77691 16.4813 7.44808C16.2915 7.11925 15.871 7.00659 15.5422 7.19644L14.1538 7.99803C13.5101 7.32213 12.6515 6.85287 11.6875 6.69997V5.50016ZM8.02086 11.0002C8.02086 9.35484 9.35469 8.021 11 8.021C12.6453 8.021 13.9792 9.35484 13.9792 11.0002C13.9792 12.6455 12.6453 13.9793 11 13.9793C9.35469 13.9793 8.02086 12.6455 8.02086 11.0002Z" fill="#4573FD"/>
</svg>