<svg xmlns="http://www.w3.org/2000/svg" width="22" height="22" viewBox="0 0 22 22" fill="none">
  <path fill-rule="evenodd" clip-rule="evenodd" d="M9.85425 1.8335C9.85425 1.4538 9.54643 1.146 9.16675 1.146C8.78706 1.146 8.47925 1.4538 8.47925 1.8335V3.66683C8.47925 4.04652 8.78706 4.35433 9.16675 4.35433C9.54643 4.35433 9.85425 4.04652 9.85425 3.66683V1.8335ZM13.5209 4.5835C13.5209 4.2038 13.2131 3.896 12.8334 3.896C12.4537 3.896 12.1459 4.2038 12.1459 4.5835V6.41683C12.1459 6.79652 12.4537 7.10433 12.8334 7.10433C13.2131 7.10433 13.5209 6.79652 13.5209 6.41683V4.5835ZM6.61345 6.15888C6.97727 6.05025 7.18414 5.66724 7.07551 5.30342C6.96688 4.9396 6.58387 4.73273 6.22005 4.84135C5.33751 5.10487 4.56484 5.45231 3.99744 5.8829C3.43935 6.30644 2.97925 6.89304 2.97925 7.6325C2.97925 11.1466 4.82798 14.2235 7.56258 15.6603V18.3435C7.56258 20.215 9.53992 21.4169 11.2091 20.5879L13.0424 19.6774C13.8957 19.2536 14.4376 18.3856 14.4376 17.433V15.6603C17.1722 14.2235 19.0209 11.1466 19.0209 7.6325C19.0209 6.89304 18.5608 6.30644 18.0027 5.8829C17.4354 5.45231 16.6627 5.10487 15.7801 4.84135C15.4163 4.73273 15.0333 4.9396 14.9247 5.30342C14.816 5.66724 15.0229 6.05025 15.3867 6.15888C16.1807 6.39595 16.7831 6.68341 17.1715 6.97821C17.5693 7.28007 17.6459 7.50938 17.6459 7.6325C17.6459 7.74056 17.5895 7.92724 17.3028 8.17976C17.0171 8.43132 16.5642 8.68923 15.9456 8.91969C14.7133 9.37867 12.965 9.6765 11.0001 9.6765C9.03521 9.6765 7.28686 9.37867 6.0546 8.91969C5.43587 8.68923 4.98306 8.43132 4.6974 8.17976C4.41064 7.92724 4.35425 7.74056 4.35425 7.6325C4.35425 7.50938 4.43089 7.28007 4.82866 6.97821C5.21713 6.68341 5.81947 6.39595 6.61345 6.15888ZM9.16675 5.72933C9.54643 5.72933 9.85425 6.03714 9.85425 6.41683V7.3335C9.85425 7.71319 9.54643 8.021 9.16675 8.021C8.78706 8.021 8.47925 7.71319 8.47925 7.3335V6.41683C8.47925 6.03714 8.78706 5.72933 9.16675 5.72933Z" fill="#4573FD"/>
</svg>